# xmcd CD database file
# Copyright (C) 1997 Ti Kan
# 
# Track frame offsets:
#     150
#     15447
#     34567
#     53260
#     69920
#     88340
#     105787
#     119580
#     136112
#     157912
#     176890
#     189275
#     208232
#     225997
#     240312
#     256072
#     273977
# 
# Disc length: 3937 seconds
# 
# Revision: 1
# Processed by: cddbd v1.4b41PL1 Copyright (c) Steve Scherf et al.
# Submitted via: DiscPlay 4.0.4
# 
DISCID=c90f5f11
DTITLE=Various Blues - Desert Blues
DYEAR=1900
DGENRE=
TTITLE0=Phoenix Boogie-Hans Olson
TTITLE1=Your Love Is Like A Runway-Big Pete Pearson
TTITLE2=Big Fat Mama 480 Pounds-Chico Chism
TTITLE3=Movin' Out Back-Diana Lee
TTITLE4=Good Mind To Quit You-The Chuck Hall Band
TTITLE5=I'm A Howling Wolf-The Chief
TTITLE6=It Ain't Me-The Sam Taylor Band
TTITLE7=Jennie Bea-Dino Spells
TTITLE8=House Cleanin' Blues-Rena Haus
TTITLE9=Blue Over You-The Hoodoo Kings
TTITLE10=Mathilda-King Kat
TTITLE11=Rockin' At The Roller Rink-The Rocket 88s
TTITLE12=Big Boss Man-Luthor Johnson and The Loose Cannon Blues Band
TTITLE13=Got A Real Bad Feelin'-Bob Bingham
TTITLE14=$40 in the Hole-Walkin' Cane Mark
TTITLE15=Blues On Sahuaro-The Jim Glass Band
TTITLE16=Don't Yell (At Me)-Lamar and Lucius Parr
EXTD=
EXTT0=
EXTT1=
EXTT2=
EXTT3=
EXTT4=
EXTT5=
EXTT6=
EXTT7=
EXTT8=
EXTT9=
EXTT10=
EXTT11=
EXTT12=
EXTT13=
EXTT14=
EXTT15=
EXTT16=
PLAYORDER=
